custom-analysis
version=1
nRows=15
nColumns=42
inDegrees=no

This file contains tibia displacement and acting force.

Units are S.I. units (seconds, meters, Newtons, ...)
Angles are in degrees.

endheader
time	APT	SIT	knee_angle	aACL_R_force	pACL_R_force	aPCL_R_force	pPCL_R_force	aMCL_R_force	mMCL_R_force	pMCL_R_force	aLCL_R_force	mLCL_R_force	pLCL_R_force	aACL_R_length	pACL_R_length	aPCL_R_length	pPCL_R_length	aMCL_R_length	mMCL_R_length	pMCL_R_length	aLCL_R_length	mLCL_R_length	pLCL_R_length	aACL_R_strain	pACL_R_strain	aPCL_R_strain	pPCL_R_strain	aMCL_R_strain	mMCL_R_strain	pMCL_R_strain	aLCL_R_strain	mLCL_R_strain	pLCL_R_strain	femur_lat_meniscii_force_r	femur_lat_meniscii_torque_r	femur_med_meniscii_force_r	femur_med_meniscii_torque_r	femur_lat_tibia_force_r	femur_lat_tibia_torque_r	femur_med_tibia_force_r	femur_med_tibia_torque_r
      0.74809578	      0.00149094	      0.00032393	      1.66574369	     31.09930007	     55.99118897	      0.00000000	      0.00000000	      0.00000000	      1.45851984	     12.55410871	     -0.56181144	      0.00000000	      0.10312264	      0.03300823	      0.02730871	      0.02844260	      0.02889960	      0.05603987	      0.06092860	      0.06330093	      0.05625505	      0.05476671	      0.05294756	      0.06459260	      0.07689695	     -0.08530859	     -0.03949095	     -0.03424484	      0.01898365	      0.04236802	      0.00496367	     -0.02755546	      0.01155578	     89.60447457	     16.56095146	     91.08898021	     14.39928328	      0.00000000	      0.00000000	      0.00000000	      0.00000000
      0.75069180	      0.00149177	      0.00032523	      1.66574369	     31.48059481	     56.37350311	      0.00000000	      0.00000000	      0.00000000	      2.53951373	     13.60541842	      0.95682219	      0.00000000	      1.61845264	      0.03300787	      0.02730843	      0.02844106	      0.02889799	      0.05603787	      0.06092660	      0.06329903	      0.05625457	      0.05476629	      0.05294716	      0.06458107	      0.07688600	     -0.08535821	     -0.03954448	     -0.03427944	      0.01895027	      0.04233684	      0.00495512	     -0.02756293	      0.01154819	     86.93066373	     16.04633768	     88.77378535	     14.00655767	      0.00000000	      0.00000000	      0.00000000	      0.00000000
      0.75328783	      0.00149208	      0.00032463	      1.66574369	     31.31081441	     56.22716489	      0.00000000	      0.00000000	      0.00000000	      1.99179796	     13.06647521	      0.17997299	      0.00000000	      0.84525177	      0.03300874	      0.02730936	      0.02844143	      0.02889832	      0.05603768	      0.06092644	      0.06329894	      0.05625610	      0.05476788	      0.05294877	      0.06460921	      0.07692271	     -0.08534641	     -0.03953359	     -0.03428270	      0.01894754	      0.04233534	      0.00498247	     -0.02753476	      0.01157892	     88.23381771	     16.30713052	     90.12462171	     14.22764209	      0.00000000	      0.00000000	      0.00000000	      0.00000000
      0.75647420	      0.00149286	      0.00032529	      1.66574369	     31.51174568	     56.44058133	      0.00000000	      0.00000000	      0.00000000	      2.53049985	     13.58738374	      0.92125871	      0.00000000	      1.58549667	      0.03300892	      0.02730962	      0.02844045	      0.02889728	      0.05603613	      0.06092491	      0.06329752	      0.05625645	      0.05476829	      0.05294921	      0.06461493	      0.07693313	     -0.08537792	     -0.03956828	     -0.03430941	      0.01892199	      0.04231197	      0.00498863	     -0.02752742	      0.01158733	     86.91182036	     16.05773401	     89.04471126	     14.04170578	      0.00000000	      0.00000000	      0.00000000	      0.00000000
      0.75966058	      0.00149315	      0.00032415	      1.66574369	     31.18750925	     56.15039431	      0.00000000	      0.00000000	      0.00000000	      1.51818644	     12.59377451	     -0.52687872	      0.00000000	      0.14256393	      0.03301027	      0.02731104	      0.02844127	      0.02889807	      0.05603633	      0.06092515	      0.06329784	      0.05625866	      0.05477057	      0.05295152	      0.06465849	      0.07698901	     -0.08535138	     -0.03954195	     -0.03430595	      0.01892596	      0.04231717	      0.00502818	     -0.02748697	      0.01163136	     89.27586114	     16.51441922	     91.46396428	     14.44200393	      0.00000000	      0.00000000	      0.00000000	      0.00000000
      0.76225843	      0.00149397	      0.00032535	      1.66574369	     31.54268520	     56.50790684	      0.00000000	      0.00000000	      0.00000000	      2.52922599	     13.57674198	      0.86709999	      0.00000000	      1.53250088	      0.03301000	      0.02731084	      0.02843977	      0.02889652	      0.05603448	      0.06092332	      0.06329610	      0.05625813	      0.05477009	      0.05295105	      0.06464967	      0.07698126	     -0.08539968	     -0.03959361	     -0.03433773	      0.01889533	      0.04228858	      0.00501859	     -0.02749554	      0.01162253	     86.87575903	     16.05854810	     89.27129659	     14.07206566	      0.00000000	      0.00000000	      0.00000000	      0.00000000
      0.76485628	      0.00149430	      0.00032479	      1.66574369	     31.38199307	     56.36996880	      0.00000000	      0.00000000	      0.00000000	      2.02537930	     13.08041680	      0.12659856	      0.00000000	      0.79395148	      0.03301086	      0.02731176	      0.02844005	      0.02889677	      0.05603437	      0.06092323	      0.06329607	      0.05625942	      0.05477144	      0.05295242	      0.06467750	      0.07701746	     -0.08539062	     -0.03958501	     -0.03433978	      0.01889379	      0.04228810	      0.00504176	     -0.02747163	      0.01164862	     88.06734067	     16.28937113	     90.50924009	     14.27616862	      0.00000000	      0.00000000	      0.00000000	      0.00000000
      0.76808422	      0.00149506	      0.00032544	      1.66574369	     31.57456406	     56.57351664	      0.00000000	      0.00000000	      0.00000000	      2.56776717	     13.60482998	      0.83890656	      0.00000000	      1.50326576	      0.03301103	      0.02731202	      0.02843904	      0.02889572	      0.05603299	      0.06092187	      0.06329481	      0.05625950	      0.05477157	      0.05295258	      0.06468312	      0.07702744	     -0.08542324	     -0.03962009	     -0.03436345	      0.01887117	      0.04226739	      0.00504312	     -0.02746925	      0.01165162	     86.80884857	     16.05166996	     89.39089202	     14.08705860	      0.00000000	      0.00000000	      0.00000000	      0.00000000
      0.77131217	      0.00149527	      0.00032422	      1.66574369	     31.21463346	     56.24507405	      0.00000000	      0.00000000	      0.00000000	      1.49182949	     12.54897694	     -0.73091527	      0.00000000	     -0.06344096	      0.03301238	      0.02731341	      0.02843994	      0.02889661	      0.05603350	      0.06092241	      0.06329541	      0.05626147	      0.05477359	      0.05295462	      0.06472649	      0.07708242	     -0.08539438	     -0.03959052	     -0.03435471	      0.01888022	      0.04227722	      0.00507832	     -0.02743336	      0.01169060	     89.38756754	     16.54696061	     91.93138150	     14.50908398	      0.00000000	      0.00000000	      0.00000000	      0.00000000
      0.77379141	      0.00149598	      0.00032544	      1.66574369	     31.56704188	     56.59515478	      0.00000000	      0.00000000	      0.00000000	      2.52833295	     13.55702545	      0.67682529	      0.00000000	      1.33808284	      0.03301198	      0.02731307	      0.02843846	      0.02889510	      0.05603189	      0.06092081	      0.06329388	      0.05626059	      0.05477275	      0.05295379	      0.06471360	      0.07706897	     -0.08544198	     -0.03964077	     -0.03438241	      0.01885346	      0.04225202	      0.00506258	     -0.02744836	      0.01167471	     86.98093925	     16.08716113	     89.61407909	     14.12985258	      0.00000000	      0.00000000	      0.00000000	      0.00000000
      0.77627065	      0.00149618	      0.00032502	      1.66574369	     31.43823579	     56.48171010	      0.00000000	      0.00000000	      0.00000000	      2.15647604	     13.19000006	      0.10010218	      0.00000000	      0.76082381	      0.03301260	      0.02731372	      0.02843865	      0.02889528	      0.05603191	      0.06092085	      0.06329395	      0.05626138	      0.05477356	      0.05295461	      0.06473355	      0.07709481	     -0.08543582	     -0.03963454	     -0.03438218	      0.01885402	      0.04225316	      0.00507665	     -0.02743387	      0.01169052	     87.91181602	     16.26576467	     90.51197613	     14.27871301	      0.00000000	      0.00000000	      0.00000000	      0.00000000
      0.77961193	      0.00149667	      0.00032550	      1.66574369	     31.56904376	     56.61858660	      0.00000000	      0.00000000	      0.00000000	      2.56246513	     13.58164287	      0.58939153	      0.00000000	      1.24502707	      0.03301269	      0.02731387	      0.02843789	      0.02889452	      0.05603105	      0.06092001	      0.06329316	      0.05626119	      0.05477341	      0.05295447	      0.06473653	      0.07710051	     -0.08546006	     -0.03966004	     -0.03439693	      0.01883994	      0.04224018	      0.00507340	     -0.02743653	      0.01168787	     87.04401792	     16.09942784	     89.63627921	     14.13193325	      0.00000000	      0.00000000	      0.00000000	      0.00000000
      0.78295321	      0.00149662	      0.00032441	      1.66574369	     31.23354426	     56.30365124	      0.00000000	      0.00000000	      0.00000000	      1.61375101	     12.65113859	     -0.83464168	      0.00000000	     -0.17862667	      0.03301370	      0.02731491	      0.02843877	      0.02889541	      0.05603183	      0.06092081	      0.06329398	      0.05626252	      0.05477476	      0.05295583	      0.06476922	      0.07714139	     -0.08543182	     -0.03963027	     -0.03438346	      0.01885342	      0.04225365	      0.00509713	     -0.02741261	      0.01171374	     89.51061377	     16.58276087	     91.83998256	     14.50059031	      0.00000000	      0.00000000	      0.00000000	      0.00000000
      0.78523494	      0.00149703	      0.00032544	      1.66574369	     31.52663700	     56.58807448	      0.00000000	      0.00000000	      0.00000000	      2.51045248	     13.52428267	      0.36060807	      0.00000000	      1.00985709	      0.03301319	      0.02731442	      0.02843761	      0.02889424	      0.05603076	      0.06091974	      0.06329293	      0.05626143	      0.05477368	      0.05295475	      0.06475257	      0.07712210	     -0.08546932	     -0.03966929	     -0.03440193	      0.01883547	      0.04223644	      0.00507761	     -0.02743186	      0.01169308	     87.38074842	     16.16188051	     89.80699799	     14.16170970	      0.00000000	      0.00000000	      0.00000000	      0.00000000
      0.78751668	      0.00149705	      0.00032523	      1.66574369	     31.45410504	     56.51923519	      0.00000000	      0.00000000	      0.00000000	      2.33991237	     13.35580040	      0.05205259	      0.00000000	      0.69908552	      0.03301342	      0.02731466	      0.02843772	      0.02889437	      0.05603095	      0.06091993	      0.06329313	      0.05626158	      0.05477383	      0.05295490	      0.06476025	      0.07713173	     -0.08546571	     -0.03966508	     -0.03439868	      0.01883873	      0.04223965	      0.00508025	     -0.02742919	      0.01169595	     87.89118574	     16.25840158	     90.20508666	     14.22970044	      0.00000000	      0.00000000	      0.00000000	      0.00000000
